PathFileType	4	(X/Y/Z)	/Users/niels/Desktop/University/Third Semester/Perception and Action/Exam/Gymnastics Motion Tracking/Code for Gym Tracking/Analyzed Data/Webcam_Backflip/id4_3_baseline_Sports2D/id4_3_baseline_Sports2D_px_person00.trc
DataRate	CameraRate	NumFrames	NumMarkers	Units	OrigDataRate	OrigDataStartFrame	OrigNumFrames
29.8125	29.8125	10	22	m	29.8125	0	160
Frame#	Time	Hip			RHip			RKnee			RAnkle			RBigToe			RSmallToe			RHeel			LHip			LKnee			LAnkle			LBigToe			LSmallToe			LHeel			Neck			Head			Nose			RShoulder			RElbow			RWrist			LShoulder			LElbow			LWrist		
		X1	Y1	Z1	X2	Y2	Z2	X3	Y3	Z3	X4	Y4	Z4	X5	Y5	Z5	X6	Y6	Z6	X7	Y7	Z7	X8	Y8	Z8	X9	Y9	Z9	X10	Y10	Z10	X11	Y11	Z11	X12	Y12	Z12	X13	Y13	Z13	X14	Y14	Z14	X15	Y15	Z15	X16	Y16	Z16	X17	Y17	Z17	X18	Y18	Z18	X19	Y19	Z19	X20	Y20	Z20	X21	Y21	Z21	X22	Y22	Z22
0	0.0	0.9246665747155359	-0.5356393923560507	0.0	0.9230686030726384	-0.5372443587452345	0.0	0.9551991820820254	-0.6451114345514616	0.0	0.9455432776359938	-0.7561658703115279	0.0	0.9825366273039273	-0.778716859315059	0.0	0.9712624823327725	-0.7835398055018696	0.0	0.9358928883851854	-0.7690454140493241	0.0	0.9165966793645544	-0.5324134499702782	0.0	0.9551976806230199	-0.6418926089097324	0.0	0.9455401626916263	-0.7529475749220799	0.0	0.9777280102093266	-0.7690657589252061	0.0	0.9729040316620741	-0.7706656549253486	0.0	0.9326664892598384	-0.7706550160648356	0.0	1.001830986488126	-0.4084778403296156	0.0	1.0613524313746854	-0.37147461560951694	0.0	1.0420476007206712	-0.3955921061862258	0.0	0.9938130472530843	-0.413293227460923	0.0	0.9277442881309574	-0.3889640642057077	0.0	0.8680419972364726	-0.35182968896780914	0.0	0.9873004215779503	-0.40845144446930554	0.0	0.9260923930233005	-0.39381512419804215	0.0	0.8728463664659251	-0.3615580219689793	0.0
1	0.03354297693920335	0.9217718707105622	-0.5318833532665473	0.0	0.9193507852891419	-0.5328471515827189	0.0	0.9606042486715465	-0.6387262339798988	0.0	0.9457663021053094	-0.748649180556613	0.0	0.9826707667019798	-0.7720056080617057	0.0	0.9714579408952058	-0.7766399210061276	0.0	0.9356557924504709	-0.7618615420200682	0.0	0.9145148968809141	-0.5286496859860867	0.0	0.9594461224997795	-0.6357698530463364	0.0	0.9465702852847729	-0.7443433833449045	0.0	0.9777367958287926	-0.7630626936375848	0.0	0.972965742991009	-0.7629231347370713	0.0	0.9310540996076079	-0.7609850524022228	0.0	1.0008321382599812	-0.4088365410120156	0.0	1.0620203252923954	-0.37106074591892974	0.0	1.044114009916261	-0.39727838365874474	0.0	0.9923067015646615	-0.41377328400225727	0.0	0.9248915581412711	-0.3910879609433002	0.0	0.8615883791762143	-0.3564146583399337	0.0	0.9866113323893432	-0.4079688382912168	0.0	0.9229774842018068	-0.394352955731315	0.0	0.8666925354876016	-0.36450614213347526	0.0
2	0.0670859538784067	0.9187681241278077	-0.5296230807093183	0.0	0.9157030324817929	-0.5299859724839594	0.0	0.9657844434092341	-0.6331259097891546	0.0	0.945888352311456	-0.7419004890081968	0.0	0.9827705134425276	-0.7660123224286116	0.0	0.971777684895546	-0.7704251185451421	0.0	0.9353421737779265	-0.7554330328853852	0.0	0.912384789599342	-0.526282551995448	0.0	0.9637233974206998	-0.6303846801979853	0.0	0.947388727382211	-0.7367413131778172	0.0	0.9779386389804153	-0.7578500459115853	0.0	0.9732860958158186	-0.7561391314242378	0.0	0.9297022967965516	-0.7523645211215452	0.0	0.9997903253572702	-0.41049876745739167	0.0	1.0624531546777787	-0.37138988040425747	0.0	1.0459611622852556	-0.39932695205595464	0.0	0.9909037944493945	-0.4158313183283503	0.0	0.9220614492002481	-0.39668179175473167	0.0	0.8553970287482537	-0.3662625496409672	0.0	0.9859153139600367	-0.40934650049214183	0.0	0.9200333202212949	-0.39826976451361096	0.0	0.8607002699419184	-0.37253300399382117	0.0
3	0.10062893081761004	0.9156086053372271	-0.5301738226503048	0.0	0.9121997843542331	-0.530037748284363	0.0	0.9704967397720953	-0.6292904789069915	0.0	0.9457641652411619	-0.7368477888050424	0.0	0.9827440803402555	-0.7615532489302687	0.0	0.9721544098825907	-0.7657071145973722	0.0	0.9347732943920127	-0.7506614902198583	0.0	0.9102894953151869	-0.526642015537473	0.0	0.9679698120223084	-0.6267288279236487	0.0	0.947775268104297	-0.7311616461735371	0.0	0.9783772045021913	-0.7542782239997241	0.0	0.9739512331917375	-0.7512907494263759	0.0	0.9286487532792568	-0.7458734150936385	0.0	0.9986529516760371	-0.4144945407499643	0.0	1.0621504509531248	-0.37317897612197115	0.0	1.0472271806070117	-0.4021449091618009	0.0	0.9896260209235658	-0.4207178637634446	0.0	0.9197733372047079	-0.4084612363360813	0.0	0.8507680779435034	-0.3852981159016317	0.0	0.9851885482096105	-0.41400575982752574	0.0	0.9178275424930522	-0.4081545947344347	0.0	0.8561014480963756	-0.3893741811700278	0.0
4	0.1341719077568134	0.9123696948130234	-0.5344260415425319	0.0	0.908952786536015	-0.5339535731751969	0.0	0.974498069688316	-0.6282861438367329	0.0	0.9451942188870919	-0.7344341683177007	0.0	0.9824072086032205	-0.759412407770415	0.0	0.9722971900434502	-0.763297175116389	0.0	0.9336969698485427	-0.7484116374411305	0.0	0.9084508585332398	-0.5307309216728977	0.0	0.9720024477072682	-0.6258984983323939	0.0	0.9475551976000981	-0.7284636793907691	0.0	0.9788660764063096	-0.7530923414871624	0.0	0.9747569886544296	-0.7491868512566177	0.0	0.9276835765236917	-0.7424423022524643	0.0	0.9973717654235488	-0.42129734445214306	0.0	1.0603994207997924	-0.37694978224737774	0.0	1.0474387318669145	-0.4061472149308818	0.0	0.9883546549961654	-0.429029348669126	0.0	0.9190183215841938	-0.42778692851829575	0.0	0.8500295404064595	-0.415400476941441	0.0	0.9843461579570828	-0.42252881268460946	0.0	0.9173641250514802	-0.42534088285307053	0.0	0.8553714125626918	-0.41678808922167654	0.0
5	0.16771488469601675	0.9093032584465137	-0.542916448448222	0.0	0.9061334037069546	-0.5422822844352965	0.0	0.9775649458579297	-0.6312366141651877	0.0	0.944006399617959	-0.7356290764892561	0.0	0.9815714074199087	-0.7603980846794822	0.0	0.9718834333375987	-0.764057562159514	0.0	0.9319393506271907	-0.7495500745887718	0.0	0.9071729799985444	-0.539184219985705	0.0	0.9755150768145111	-0.629016205281581	0.0	0.9466455685417072	-0.7294949088678576	0.0	0.9791054196624596	-0.7550838846609357	0.0	0.9752888999675962	-0.7505647906006203	0.0	0.9265145079202485	-0.7429584560802388	0.0	0.9957944595235071	-0.4308776732496744	0.0	1.0564090278721763	-0.38295277910068587	0.0	1.0460625811404072	-0.4117981020784977	0.0	0.9867529444936457	-0.44069512422934526	0.0	0.9211240083834736	-0.4542422390390652	0.0	0.8562834873520633	-0.45573659848929843	0.0	0.9832464920351345	-0.43468412406168433	0.0	0.9200764789443368	-0.4495163765945981	0.0	0.8619260511710759	-0.4538010969022136	0.0
6	0.20125786163522008	0.906753954891079	-0.5558471472429712	0.0	0.9038834558393621	-0.5551707953206498	0.0	0.979523132721727	-0.6391242679763642	0.0	0.9421963071272053	-0.741370171786981	0.0	0.9801747004272162	-0.7653800368000866	0.0	0.9707772059450586	-0.7688990612764057	0.0	0.9295686878100949	-0.7549608432712107	0.0	0.9066879844783049	-0.5522130035290771	0.0	0.9781446972240072	-0.6370532037441579	0.0	0.9450746973680019	-0.7351966856024955	0.0	0.9789298706762526	-0.7611772431431029	0.0	0.9751960218593936	-0.7562494968424655	0.0	0.9249757600077009	-0.7483055029278632	0.0	0.9935971871222102	-0.44286475158900696	0.0	1.0495729431144587	-0.3911350206923112	0.0	1.0426330485240969	-0.41947313253610163	0.0	0.9843439974870416	-0.45509050507478954	0.0	0.9274026516511569	-0.48549875813257987	0.0	0.872584619992025	-0.5023023554137099	0.0	0.9817313425308133	-0.44968436827554725	0.0	0.9274931067979529	-0.4784600877412905	0.0	0.8790044345151324	-0.49623854494184083	0.0
7	0.23480083857442344	0.9049930483078428	-0.5729154953519597	0.0	0.9022119609800768	-0.5722842366175058	0.0	0.9802393506057403	-0.6525001770704133	0.0	0.9400081903661043	-0.7523579500673077	0.0	0.9783785482685724	-0.7751013460959048	0.0	0.969162388741425	-0.7785629708684086	0.0	0.9269395469318666	-0.7653372027737302	0.0	0.9070093913337043	-0.5694976438550376	0.0	0.9795403100951796	-0.6505645273951344	0.0	0.9430298118356969	-0.7463953237218355	0.0	0.9783958616929641	-0.7720613450385879	0.0	0.9743420865114113	-0.7669678052448239	0.0	0.9231445408876796	-0.7591239727487612	0.0	0.9903897289506117	-0.4567041722201513	0.0	1.0397158550125718	-0.40113568305109004	0.0	1.0369093595093262	-0.4292544388640899	0.0	0.980705591976876	-0.47122983830471066	0.0	0.9386286769710112	-0.517573300281796	0.0	0.900624420220559	-0.5480225596878682	0.0	0.979702464616456	-0.4664577174234734	0.0	0.9405838251768138	-0.50819989445001	0.0	0.908218616507646	-0.537090040594835	0.0
8	0.2683438155136268	0.9041805179526743	-0.5930525848497309	0.0	0.9011041783324112	-0.5926329705719644	0.0	0.9796332062578894	-0.6711031810375734	0.0	0.9378682496632103	-0.7685982548031892	0.0	0.976577846979875	-0.7896318896780044	0.0	0.9675215792026245	-0.7931125491659247	0.0	0.9245467566588769	-0.7807135855413805	0.0	0.908003938512005	-0.5900022144295084	0.0	0.9794385822154392	-0.6692880246601853	0.0	0.9408628470766435	-0.7631826976535783	0.0	0.9776377566760152	-0.7875403536890473	0.0	0.9727570766920521	-0.782657621331688	0.0	0.921306654992752	-0.7752884304906356	0.0	0.9859107091099658	-0.47170615953645806	0.0	1.0271457194216684	-0.4122477492119985	0.0	1.0289796872352401	-0.4407857662708511	0.0	0.9756557836900365	-0.48795148983697767	0.0	0.9544225880417079	-0.5455104396405265	0.0	0.939109313635273	-0.5839935718410131	0.0	0.9771944788953109	-0.4837538834045723	0.0	0.9588815703248442	-0.533726326171369	0.0	0.9479745013055733	-0.5679685876304505	0.0
9	0.3018867924528301	0.9045542941252425	-0.6143431113720097	0.0	0.900869516521391	-0.6143538134386849	0.0	0.9777717542663876	-0.6934719696467041	0.0	0.9361752101241575	-0.7888713760182563	0.0	0.9752145654618815	-0.8078245074646022	0.0	0.9663201380358302	-0.8114360673389054	0.0	0.922772383996387	-0.799980436507445	0.0	0.9096875609730668	-0.6117992036873898	0.0	0.9778295157997114	-0.691754070779879	0.0	0.9389564821864383	-0.784226571372279	0.0	0.9767477405331109	-0.8061719346333961	0.0	0.9706246032176961	-0.8018922934529915	0.0	0.9198203070778851	-0.7953678357602391	0.0	0.9801559701418495	-0.4868406723957398	0.0	1.0124827843785171	-0.4233683701147469	0.0	1.0192331365497347	-0.45307972918377115	0.0	0.9693923947351011	-0.5038923995692782	0.0	0.9727506198844555	-0.5643419759802439	0.0	0.9825309526826627	-0.6018610439071207	0.0	0.9742383849110896	-0.5000109391613956	0.0	0.9796787400842094	-0.5501022003615018	0.0	0.9921198479405411	-0.5812903954043884	0.0
